<svg width="846" height="214" viewBox="0 0 846 214" fill="none" xmlns="http://www.w3.org/2000/svg">
<path d="M507.745 208.39C512.287 205.985 516.294 202.512 518.699 196.634C521.37 190.222 522.172 182.742 522.439 176.597C522.706 169.918 522.973 162.704 522.973 153.086V107.134C522.973 84.4245 522.706 61.181 521.638 49.96C520.836 41.9451 519.5 36.0674 516.561 32.3271C514.157 29.1211 509.882 27.2509 506.409 27.2509C505.608 27.2509 505.073 27.2509 503.737 27.5181L502.669 24.0449C511.752 20.839 531.79 15.4956 543.545 10.9538C555.568 5.07615 568.659 0 573.735 0L577.208 2.67166C578.277 9.08364 578.544 17.0986 578.544 24.5793C578.544 39.8077 578.01 92.9738 578.01 146.14C578.01 169.116 578.544 181.139 580.414 189.421C582.017 196.367 585.49 205.184 594.307 208.39L594.04 211.328C586.025 211.328 561.98 210.527 548.354 210.527C533.126 210.527 511.752 211.328 508.012 211.328L507.745 208.39Z" fill="#2D2926"/>
<path d="M440.989 75.3408C435.378 68.3945 429.501 57.1735 429.501 44.6167C429.501 27.2509 444.195 12.5568 463.698 12.5568C478.392 12.5568 488.812 22.4419 488.812 36.3346C488.812 50.4944 480.262 57.4407 467.706 63.5855C458.889 67.8602 451.408 71.3333 443.393 75.8752L440.989 75.3408ZM417.211 208.39C421.753 205.985 425.76 202.512 428.165 196.634C432.172 187.283 432.44 171.788 432.44 155.223C432.44 139.728 431.638 122.362 427.631 115.95C425.493 112.477 422.822 110.874 419.616 110.874C418.814 110.874 418.28 110.874 416.944 111.141L416.142 108.202C426.295 104.462 440.187 98.3171 451.676 92.4395C464.767 85.226 477.858 79.0812 482.934 79.0812C484.27 79.0812 486.14 80.1498 486.407 81.7528C487.476 88.432 487.743 98.8515 487.743 106.599C487.743 114.614 487.476 127.438 487.476 139.728V156.826C487.476 172.055 488.277 182.474 489.88 189.421C491.483 196.901 495.224 205.451 503.773 208.39L503.506 211.328C495.491 211.328 471.446 210.527 457.82 210.527C442.592 210.527 421.219 211.328 417.478 211.328L417.211 208.39Z" fill="#2D2926"/>
<path d="M409.528 169.918C399.643 189.688 378.27 214 343.004 214C323.768 214 308.272 209.458 295.715 198.504C282.624 187.283 275.411 170.452 275.411 148.812C275.411 111.675 303.73 82.8215 348.881 82.8215C361.705 82.8215 375.865 84.4245 386.017 88.6991C399.376 94.3096 406.055 102.325 406.055 112.21C406.055 126.102 395.101 137.056 382.01 137.056C369.453 137.056 364.11 129.843 359.301 111.943C356.095 100.187 352.355 90.5693 347.278 88.6991C338.729 96.7141 334.989 118.087 334.989 142.132C334.989 155.223 337.928 166.712 344.34 174.727C349.95 181.94 359.034 186.215 369.987 186.215C385.216 186.215 396.971 178.734 406.589 167.78L409.528 169.918Z" fill="#2D2926"/>
<path d="M91.6025 208.39C96.1443 205.985 99.8846 203.046 102.556 196.634C105.228 190.222 106.029 182.207 106.297 176.597C106.564 169.918 106.831 162.704 106.831 153.086C106.831 138.392 105.762 126.904 103.892 120.225C102.556 115.149 99.0831 110.874 94.2741 110.874C93.4726 110.874 92.6711 110.874 91.3353 111.141L90.5338 108.202C99.6175 104.729 115.38 97.7828 127.403 91.638C138.891 85.4931 151.448 79.0812 157.325 79.0812C158.661 79.0812 160.531 80.1498 160.798 82.02C161.867 89.5006 161.867 98.3171 161.867 107.134V110.34C178.431 97.2484 196.332 83.0886 213.163 83.0886C233.2 83.0886 245.49 93.241 248.696 113.546C250.299 123.164 250.032 135.453 250.299 147.743C250.566 161.368 251.101 172.322 251.902 180.337C252.704 187.818 253.772 193.695 256.177 198.237C258.848 203.313 262.589 206.519 267.665 208.39L267.398 211.328C254.039 211.328 239.612 210.527 223.85 210.527C209.957 210.527 192.057 211.061 181.905 211.328L181.637 208.39C186.714 204.916 190.454 200.375 192.324 191.825C194.729 180.871 194.729 168.582 194.729 156.559C194.729 145.338 194.461 135.453 192.591 125.568C190.721 115.683 185.645 110.874 176.828 110.874C172.019 110.874 166.409 113.011 161.867 116.484V146.14C161.867 168.582 162.669 182.207 164.272 189.421C165.875 196.901 169.348 204.916 177.096 208.39L176.828 211.328C168.813 211.328 145.837 210.527 132.212 210.527C116.983 210.527 95.61 211.328 91.8696 211.328L91.6025 208.39Z" fill="#2D2926"/>
<path d="M24.8464 75.3408C19.236 68.3945 13.3583 57.1735 13.3583 44.6167C13.3583 27.2509 28.0524 12.5568 47.5556 12.5568C62.2497 12.5568 72.6692 22.4419 72.6692 36.3346C72.6692 50.4944 64.1199 57.4407 51.5631 63.5855C42.7466 67.8602 35.2659 71.3333 27.2509 75.8752L24.8464 75.3408ZM1.06866 208.39C5.61049 205.985 9.61798 202.512 12.0225 196.634C16.03 187.283 16.2971 171.788 16.2971 155.223C16.2971 139.728 15.4956 122.362 11.4881 115.95C9.35081 112.477 6.67915 110.874 3.47316 110.874C2.67166 110.874 2.13733 110.874 0.801498 111.141L0 108.202C10.1523 104.462 24.045 98.3171 35.5331 92.4395C48.6242 85.226 61.7154 79.0812 66.7915 79.0812C68.1273 79.0812 69.9975 80.1498 70.2647 81.7528C71.3333 88.432 71.6005 98.8515 71.6005 106.599C71.6005 114.614 71.3333 127.438 71.3333 139.728V156.826C71.3333 172.055 72.1348 182.474 73.7378 189.421C75.3408 196.901 79.0812 205.451 87.6305 208.39L87.3633 211.328C79.3483 211.328 55.3034 210.527 41.6779 210.527C26.4494 210.527 5.07616 211.328 1.33583 211.328L1.06866 208.39Z" fill="#2D2926"/>
<path d="M830.284 111.113H829.416C829.019 111.113 828.622 111.198 828.255 111.366C827.888 111.532 827.553 111.779 827.269 112.091C826.987 112.399 826.765 112.77 826.611 113.173C826.46 113.579 826.38 114.014 826.383 114.453V114.69C826.38 115.128 826.46 115.563 826.611 115.97C826.765 116.376 826.987 116.743 827.269 117.055C827.553 117.363 827.888 117.61 828.255 117.776C828.622 117.945 829.019 118.029 829.416 118.029H844.486C844.88 114.43 845.063 110.805 845.028 107.179C845.028 83.2106 836.572 61.27 822.48 43.9798H765.572C764.423 43.9798 763.321 43.4773 762.507 42.5827C761.695 41.688 761.236 40.4751 761.236 39.2098C761.236 37.9448 761.695 36.7319 762.507 35.8373C763.321 34.9426 764.423 34.4401 765.572 34.4401H774.68C775.319 34.3141 775.888 33.9213 776.273 33.3441C776.655 32.7665 776.824 32.0489 776.738 31.3398C776.631 30.7837 776.38 30.2736 776.012 29.8715C775.648 29.4697 775.183 29.1926 774.68 29.0743H742.701C741.89 29.0746 741.087 28.8992 740.338 28.5578C739.588 28.2164 738.907 27.7158 738.333 27.0843C737.758 26.4531 737.305 25.7037 736.994 24.879C736.683 24.0542 736.523 23.1703 736.523 22.2773V21.8004C736.523 20.9077 736.683 20.0238 736.994 19.199C737.305 18.3739 737.758 17.6245 738.333 16.9933C738.907 16.3622 739.588 15.8616 740.338 15.5202C741.087 15.1788 741.89 15.003 742.701 15.0037H759.394C759.625 15.0037 759.844 14.903 760.007 14.7243C760.17 14.5453 760.262 14.3027 760.262 14.0496C760.262 13.7966 760.17 13.5539 760.007 13.3752C759.844 13.1962 759.625 13.0955 759.394 13.0955H758.419C757.214 13.0878 756.059 12.5576 755.209 11.6201C754.356 10.6826 753.873 9.41343 753.867 8.08742C753.849 7.68623 753.885 7.28441 753.974 6.89492C750.399 6.53727 746.821 6.29883 743.137 6.29883C711.81 6.29883 683.735 20.2502 665.091 42.3104H736.958C738.161 42.3816 739.292 42.9721 740.104 43.9545C740.915 44.9365 741.342 46.231 741.294 47.557C741.253 48.808 740.782 49.9956 739.979 50.8808C739.174 51.766 738.096 52.2825 736.958 52.3267H682.435C681.843 52.3328 681.259 52.4677 680.717 52.723C680.172 52.9783 679.681 53.3493 679.266 53.8148C678.854 54.28 678.529 54.8306 678.309 55.4348C678.09 56.039 677.984 56.6845 677.989 57.3348V57.6928C677.992 58.9399 678.416 60.1418 679.177 61.0666C679.938 61.9915 680.981 62.5736 682.109 62.7009H682.219C683.063 62.7925 683.839 63.2424 684.387 63.9551C684.932 64.6678 685.204 65.5865 685.145 66.5165C685.08 67.3881 684.725 68.2021 684.141 68.7979C683.561 69.3937 682.796 69.7286 682.003 69.7361H648.398C646.441 74.7156 644.844 79.8595 643.63 85.1184H699.344C701.008 85.1951 702.581 85.976 703.733 87.2981C704.885 88.6206 705.531 90.3815 705.531 92.2137C705.531 94.0455 704.885 95.8068 703.733 97.1289C702.581 98.4507 701.008 99.2336 699.344 99.3083H673.979C672.866 99.5487 671.873 100.244 671.198 101.251C670.526 102.258 670.221 103.505 670.342 104.749C670.467 105.994 671.009 107.14 671.862 107.965C672.715 108.79 673.819 109.232 674.957 109.206H695.876C697.081 109.213 698.236 109.742 699.086 110.681C699.939 111.62 700.422 112.887 700.428 114.215C700.428 115.43 700.019 116.603 699.279 117.506C698.538 118.409 697.516 118.978 696.418 119.104H653.818C652.717 119.289 651.713 119.9 650.987 120.829C650.261 121.762 649.864 122.944 649.864 124.172C649.864 125.397 650.261 126.582 650.987 127.511C651.713 128.44 652.717 129.054 653.818 129.239C653.602 129.239 653.276 129.356 653.06 129.356H676.905C678.143 129.295 679.352 129.775 680.267 130.691C681.182 131.608 681.727 132.887 681.783 134.245C681.843 135.606 681.407 136.935 680.572 137.942C679.74 138.949 678.576 139.55 677.341 139.612H646.882C650.818 150.744 656.546 161.006 663.791 169.9H714.304C716.605 169.994 718.782 171.063 720.381 172.889C721.978 174.711 722.872 177.144 722.872 179.678C722.872 182.212 721.978 184.645 720.381 186.471C718.782 188.293 716.605 189.365 714.304 189.456H684.819C702.371 201.498 722.668 207.826 743.353 207.699C770.666 207.699 795.382 197.086 813.701 179.798H786.601C785.991 179.827 785.378 179.727 784.803 179.499C784.225 179.269 783.695 178.918 783.242 178.463C782.789 178.012 782.422 177.463 782.161 176.852C781.9 176.241 781.752 175.582 781.723 174.909C781.696 174.237 781.788 173.561 781.995 172.928C782.203 172.294 782.522 171.713 782.937 171.213C783.349 170.716 783.846 170.31 784.4 170.024C784.957 169.738 785.555 169.575 786.168 169.543H791.588C792.015 168.948 792.56 168.471 793.179 168.14C793.798 167.808 794.476 167.636 795.166 167.636H824.541C833.903 155.542 840.384 141.077 843.402 125.543H768.501C767.554 125.533 766.65 125.114 765.981 124.38C765.311 123.642 764.932 122.648 764.923 121.606C764.932 120.566 765.311 119.572 765.981 118.835C766.65 118.097 767.554 117.681 768.501 117.672H791.805C792.216 117.626 792.619 117.49 792.983 117.272C793.348 117.055 793.67 116.762 793.934 116.408C794.195 116.054 794.39 115.645 794.509 115.206C794.627 114.771 794.666 114.31 794.624 113.855C794.574 113.052 794.26 112.296 793.742 111.724C793.223 111.155 792.536 110.811 791.805 110.756H760.804C759.569 110.756 758.381 110.217 757.507 109.255C756.633 108.293 756.142 106.988 756.142 105.63C756.142 104.269 756.633 102.963 757.507 102.001C758.381 101.04 759.569 100.5 760.804 100.5H830.284C830.897 100.497 831.507 100.624 832.073 100.881C832.642 101.137 833.157 101.514 833.589 101.991C834.025 102.469 834.368 103.037 834.599 103.661C834.833 104.285 834.949 104.954 834.946 105.63C834.984 106.328 834.889 107.033 834.673 107.692C834.457 108.352 834.119 108.959 833.684 109.469C833.249 109.983 832.722 110.395 832.138 110.678C831.555 110.96 830.924 111.107 830.284 111.113ZM698.044 79.7526C697.04 79.8754 696.033 79.5551 695.242 78.8619C694.451 78.1687 693.942 77.1594 693.829 76.0546C693.714 74.9498 694.001 73.8405 694.629 72.9689C695.257 72.0973 696.172 71.5354 697.176 71.4058H716.146C716.644 71.4665 717.126 71.6351 717.568 71.9024C718.006 72.1695 718.394 72.5294 718.705 72.9618C719.019 73.3938 719.25 73.8899 719.386 74.421C719.525 74.9521 719.564 75.5076 719.505 76.0562C719.392 76.9928 719.001 77.8624 718.394 78.5303C717.787 79.1985 716.996 79.6279 716.146 79.7526H698.044ZM759.287 143.549C759.684 143.546 760.081 143.633 760.448 143.799C760.818 143.968 761.153 144.215 761.434 144.523C761.716 144.835 761.941 145.202 762.092 145.608C762.243 146.014 762.323 146.446 762.32 146.885C762.332 147.327 762.261 147.769 762.11 148.178C761.962 148.587 761.74 148.961 761.455 149.273C761.171 149.584 760.833 149.828 760.46 149.994C760.087 150.156 759.687 150.237 759.287 150.224H719.614C719.214 150.228 718.82 150.14 718.453 149.974C718.083 149.805 717.748 149.558 717.467 149.25C717.186 148.938 716.961 148.571 716.809 148.165C716.655 147.759 716.578 147.327 716.578 146.885C716.57 146.446 716.641 146.005 716.792 145.595C716.94 145.186 717.162 144.812 717.446 144.501C717.731 144.189 718.068 143.945 718.441 143.779C718.815 143.617 719.214 143.536 719.614 143.549H719.83C720.464 143.549 721.071 143.273 721.519 142.779C721.963 142.288 722.215 141.619 722.215 140.924C722.215 140.229 721.963 139.563 721.519 139.069C721.071 138.579 720.464 138.303 719.83 138.303H711.484C711.067 137.77 710.836 137.094 710.836 136.392C710.833 135.97 710.907 135.551 711.055 135.158C711.2 134.768 711.416 134.411 711.689 134.112C711.961 133.813 712.284 133.576 712.639 133.414C712.995 133.254 713.377 133.173 713.762 133.173H749.205C749.967 133.225 750.677 133.605 751.184 134.229C751.693 134.856 751.954 135.675 751.915 136.513C751.85 137.279 751.542 137.994 751.048 138.54C750.553 139.082 749.901 139.42 749.205 139.495H741.836C741.38 139.537 740.957 139.774 740.655 140.151C740.353 140.528 740.193 141.018 740.21 141.522V141.639C740.207 141.905 740.252 142.171 740.344 142.418C740.436 142.665 740.572 142.889 740.744 143.078C740.915 143.266 741.12 143.416 741.345 143.516C741.57 143.617 741.81 143.669 742.053 143.666H759.287V143.549ZM808.281 68.7823H770.344C769.579 68.8297 768.833 68.5423 768.264 67.9832C767.696 67.4241 767.352 66.6393 767.308 65.8012C767.263 64.9631 767.527 64.1406 768.033 63.5143C768.543 62.8883 769.257 62.5099 770.018 62.4625H808.281C808.66 62.4784 809.033 62.5784 809.377 62.7565C809.72 62.9345 810.028 63.1869 810.28 63.4987C810.532 63.8102 810.727 64.1747 810.849 64.5704C810.97 64.9661 811.018 65.3844 810.991 65.8012C810.926 66.5672 810.618 67.2841 810.123 67.8283C809.628 68.3724 808.977 68.7099 808.281 68.7823Z" fill="#FF7C00"/>
</svg>
