<svg width="1200" height="1200" viewBox="0 0 1200 1200" fill="none" xmlns="http://www.w3.org/2000/svg">
<rect width="1200" height="1200" rx="96" fill="#FAE9D8"/>
<path d="M600 300 C 430 300 350 440 350 610 L 350 760 L 310 830 L 890 830 L 850 760 L 850 610 C 850 440 770 300 600 300 Z" fill="#2D2926"/><rect x="560" y="240" width="80" height="90" rx="40" fill="#2D2926"/><path d="M520 870 a 80 80 0 0 0 160 0 Z" fill="#2D2926"/><path d="M250 420 A 320 320 0 0 0 250 800" stroke="#D82C5F" stroke-width="22" stroke-linecap="round" fill="none"/><path d="M160 360 A 430 430 0 0 0 160 860" stroke="#FEBB13" stroke-width="22" stroke-linecap="round" fill="none"/><path d="M950 420 A 320 320 0 0 1 950 800" stroke="#D82C5F" stroke-width="22" stroke-linecap="round" fill="none"/><path d="M1040 360 A 430 430 0 0 1 1040 860" stroke="#FEBB13" stroke-width="22" stroke-linecap="round" fill="none"/><circle cx="830" cy="330" r="150" fill="#FAF5F0"/><g transform="translate(725,225) scale(1.7647058823529411)"><path d="M109.643 61.6037H109.134C108.9 61.6037 108.667 61.6534 108.452 61.7527C108.236 61.85 108.039 61.9951 107.872 62.1784C107.707 62.3598 107.576 62.5774 107.486 62.8142C107.397 63.0528 107.35 63.3087 107.352 63.5664V63.7058C107.35 63.9636 107.397 64.2194 107.486 64.4581C107.576 64.6967 107.707 64.9125 107.872 65.0957C108.039 65.2771 108.236 65.4222 108.452 65.5196C108.667 65.6189 108.9 65.6685 109.134 65.6685H117.986C118.217 63.5531 118.325 61.4224 118.304 59.2916C118.304 45.2043 113.337 32.3088 105.059 22.1467H71.6306C70.9556 22.1467 70.3084 21.8513 69.83 21.3255C69.3533 20.7997 69.0836 20.0868 69.0836 19.3431C69.0836 18.5997 69.3533 17.8868 69.83 17.361C70.3084 16.8352 70.9556 16.5398 71.6306 16.5398H76.9805C77.3563 16.4657 77.6904 16.2349 77.9165 15.8956C78.141 15.5562 78.2401 15.1344 78.1896 14.7176C78.127 14.3908 77.9791 14.091 77.7634 13.8546C77.5494 13.6185 77.2763 13.4556 76.9805 13.3861H58.196C57.7193 13.3863 57.2478 13.2832 56.8076 13.0825C56.3675 12.8819 55.9673 12.5877 55.6298 12.2165C55.2923 11.8455 55.0261 11.4051 54.8434 10.9203C54.6608 10.4356 54.5668 9.91605 54.5668 9.3912V9.11093C54.5668 8.58627 54.6608 8.06675 54.8434 7.582C55.0261 7.09705 55.2923 6.65658 55.6298 6.28562C55.9673 5.91465 56.3675 5.62044 56.8076 5.41977C57.2478 5.21911 57.7193 5.11583 58.196 5.11621H68.0015C68.1372 5.11621 68.2659 5.05701 68.3616 4.952C68.4573 4.8468 68.5112 4.70419 68.5112 4.55546C68.5112 4.40673 68.4573 4.26411 68.3616 4.1591C68.2659 4.0539 68.1372 3.99472 68.0015 3.99472H67.429C66.721 3.99013 66.0425 3.67854 65.5432 3.12754C65.0421 2.57653 64.7585 1.83058 64.755 1.05123C64.7446 0.815435 64.7655 0.579269 64.8177 0.350351C62.7177 0.140143 60.616 0 58.4517 0C40.05 0 23.5585 8.19983 12.6066 21.1655H54.8225C55.5289 21.2073 56.1935 21.5544 56.6702 22.1318C57.1469 22.709 57.3975 23.4698 57.3696 24.2491C57.3453 24.9844 57.0686 25.6824 56.5971 26.2027C56.1239 26.7229 55.4906 27.0265 54.8225 27.0525H22.7947C22.4468 27.0561 22.1041 27.1353 21.7857 27.2854C21.4656 27.4355 21.1768 27.6535 20.9332 27.9271C20.6914 28.2005 20.5 28.5241 20.3712 28.8793C20.2425 29.2344 20.1799 29.6137 20.1833 29.996V30.2064C20.1851 30.9393 20.4339 31.6458 20.881 32.1893C21.3281 32.7329 21.9405 33.075 22.6034 33.1499H22.6678C23.1636 33.2037 23.6194 33.4681 23.9413 33.887C24.2614 34.3059 24.4215 34.8458 24.3867 35.3925C24.3484 35.9047 24.1396 36.3832 23.7969 36.7333C23.4559 37.0835 23.007 37.2803 22.5407 37.2847H2.80106C1.65105 40.2114 0.713314 43.2347 0 46.3256H32.7272C33.705 46.3706 34.6288 46.8296 35.3056 47.6067C35.9824 48.3839 36.3616 49.4189 36.3616 50.4957C36.3616 51.5724 35.9824 52.6075 35.3056 53.3846C34.6288 54.1615 33.705 54.6216 32.7272 54.6655H17.8276C17.1735 54.8068 16.5907 55.2154 16.194 55.8073C15.7991 56.3991 15.6199 57.1323 15.6912 57.8635C15.7643 58.5948 16.0827 59.2687 16.5837 59.7537C17.0848 60.2386 17.7337 60.4983 18.4018 60.483H30.6899C31.398 60.4868 32.0765 60.798 32.5758 61.3498C33.0769 61.9016 33.3605 62.6462 33.364 63.4271C33.364 64.1411 33.1239 64.8304 32.6889 65.3611C32.254 65.8919 31.6537 66.226 31.0083 66.3005H5.98489C5.33769 66.4093 4.7479 66.7682 4.32166 67.3143C3.89541 67.8622 3.66229 68.5572 3.66229 69.2789C3.66229 69.9987 3.89541 70.6956 4.32166 71.2416C4.7479 71.7877 5.33769 72.1485 5.98489 72.2573C5.85789 72.2573 5.66649 72.3261 5.53949 72.3261H19.5465C20.2738 72.2898 20.9836 72.5723 21.5212 73.1108C22.0588 73.6492 22.3789 74.4014 22.412 75.1995C22.4468 75.9994 22.191 76.7803 21.7004 77.3722C21.2115 77.9641 20.5278 78.3173 19.8023 78.3535H1.91028C4.22246 84.8965 7.58725 90.9278 11.8428 96.1553H41.5149C42.8667 96.2107 44.1454 96.8389 45.0849 97.9119C46.0227 98.983 46.5481 100.413 46.5481 101.902C46.5481 103.391 46.0227 104.821 45.0849 105.894C44.1454 106.965 42.8667 107.596 41.5149 107.649H24.1953C34.5053 114.727 46.4281 118.446 58.5788 118.371C74.6231 118.371 89.1416 112.134 99.9023 101.973H83.9832C83.6248 101.99 83.2647 101.931 82.9272 101.797C82.5879 101.662 82.2764 101.455 82.0103 101.188C81.7441 100.923 81.5283 100.6 81.3752 100.241C81.2221 99.8822 81.1351 99.4946 81.1177 99.0994C81.1021 98.7042 81.156 98.3071 81.2778 97.9348C81.3996 97.5625 81.5875 97.2207 81.8311 96.9267C82.0729 96.6346 82.3651 96.3959 82.6905 96.2279C83.0176 96.0599 83.3691 95.9644 83.7292 95.9453H86.913C87.1635 95.5959 87.4836 95.3153 87.8473 95.1205C88.2109 94.9258 88.6093 94.8246 89.0146 94.8246H106.27C111.769 87.7165 115.576 79.2146 117.349 70.0846H73.3513C72.7946 70.0789 72.2639 69.8326 71.8707 69.4011C71.4775 68.9677 71.2549 68.3835 71.2496 67.7706C71.2549 67.1596 71.4775 66.5754 71.8707 66.142C72.2639 65.7086 72.7946 65.4642 73.3513 65.4585H87.04C87.2818 65.4318 87.5184 65.3516 87.7324 65.2237C87.9464 65.0957 88.136 64.9239 88.2909 64.7158C88.444 64.5077 88.5588 64.2671 88.6284 64.0094C88.698 63.7535 88.7206 63.4824 88.6962 63.2151C88.6667 62.7436 88.4823 62.2987 88.1778 61.9627C87.8734 61.6286 87.4697 61.4262 87.04 61.3937H68.8296C68.1041 61.3937 67.4064 61.0768 66.8932 60.5116C66.38 59.9465 66.0912 59.179 66.0912 58.3809C66.0912 57.581 66.38 56.8134 66.8932 56.2483C67.4064 55.6832 68.1041 55.3662 68.8296 55.3662H109.643C110.003 55.3643 110.362 55.4388 110.694 55.5896C111.028 55.7404 111.331 55.9619 111.585 56.2426C111.841 56.5232 112.043 56.8573 112.178 57.2239C112.316 57.5905 112.383 57.9838 112.382 58.3809C112.404 58.7914 112.349 59.2057 112.222 59.5933C112.095 59.9809 111.896 60.3379 111.641 60.6377C111.385 60.9393 111.075 61.1818 110.732 61.3479C110.39 61.514 110.019 61.5999 109.643 61.6037ZM31.9634 43.1719C31.3737 43.244 30.7821 43.0558 30.3176 42.6483C29.853 42.2409 29.5538 41.6477 29.4877 40.9984C29.4199 40.3491 29.5886 39.697 29.9574 39.1848C30.3263 38.6725 30.8639 38.3422 31.4537 38.2661H42.5971C42.8894 38.3018 43.1729 38.4008 43.4321 38.558C43.6896 38.7149 43.9175 38.9265 44.1002 39.1806C44.2846 39.4345 44.4204 39.7261 44.5004 40.0382C44.5822 40.3504 44.6048 40.6769 44.57 40.9993C44.5039 41.5498 44.2742 42.0609 43.9175 42.4534C43.5609 42.8462 43.0964 43.0985 42.5971 43.1719H31.9634ZM67.9388 80.6675C68.1719 80.6656 68.4051 80.7172 68.6208 80.8146C68.8383 80.9138 69.0349 81.0589 69.2002 81.2403C69.3654 81.4236 69.4977 81.6394 69.5864 81.878C69.6751 82.1167 69.7221 82.3706 69.7204 82.6283C69.7273 82.888 69.6856 83.1477 69.5968 83.3882C69.5098 83.6288 69.3794 83.8484 69.2124 84.0316C69.0454 84.2149 68.847 84.3581 68.6278 84.4555C68.4086 84.551 68.1737 84.5987 67.9388 84.5911H44.6343C44.3994 84.593 44.1681 84.5414 43.9523 84.444C43.7349 84.3447 43.5382 84.1997 43.373 84.0183C43.2077 83.835 43.0755 83.6192 42.9868 83.3806C42.8963 83.1419 42.851 82.888 42.851 82.6283C42.8458 82.3706 42.8876 82.1109 42.9763 81.8704C43.0633 81.6298 43.1938 81.4102 43.3608 81.227C43.5278 81.0437 43.7262 80.9005 43.9454 80.8031C44.1646 80.7076 44.3994 80.6599 44.6343 80.6675H44.7614C45.1337 80.6675 45.4903 80.5053 45.753 80.2151C46.014 79.9268 46.1618 79.5335 46.1618 79.1249C46.1618 78.7163 46.014 78.3249 45.753 78.0347C45.4903 77.7464 45.1337 77.5841 44.7614 77.5841H39.8586C39.6133 77.271 39.4776 76.8739 39.4776 76.4615C39.4759 76.2133 39.5194 75.967 39.6064 75.736C39.6916 75.5069 39.8186 75.2968 39.9787 75.1212C40.1387 74.9455 40.3283 74.8062 40.5371 74.7107C40.7459 74.6171 40.9703 74.5694 41.1965 74.5694H62.0165C62.4637 74.6 62.8813 74.8234 63.1788 75.1899C63.478 75.5584 63.6311 76.0395 63.6085 76.5321C63.5702 76.9827 63.3893 77.4027 63.0988 77.7235C62.8082 78.0423 62.4254 78.2409 62.0165 78.2848H57.688C57.42 78.3096 57.1713 78.449 56.9938 78.6705C56.8164 78.892 56.7224 79.1802 56.7329 79.4762V79.5449C56.7311 79.7015 56.7572 79.858 56.8111 80.0031C56.8651 80.1482 56.9451 80.28 57.046 80.3907C57.1469 80.5014 57.267 80.5893 57.3992 80.6485C57.5314 80.7076 57.6723 80.7382 57.8149 80.7363H67.9388V80.6675ZM96.7185 36.7242H74.4334C73.9846 36.752 73.5461 36.5831 73.2121 36.2545C72.8781 35.9259 72.6763 35.4646 72.6502 34.972C72.6241 34.4795 72.7789 33.996 73.0764 33.6279C73.3757 33.26 73.795 33.0376 74.2421 33.0097H96.7185C96.9412 33.0191 97.1603 33.0779 97.3622 33.1825C97.564 33.2871 97.7449 33.4355 97.8928 33.6188C98.0407 33.8019 98.1555 34.0161 98.2269 34.2486C98.2982 34.4812 98.326 34.7271 98.3103 34.972C98.2721 35.4222 98.0911 35.8436 97.8006 36.1634C97.51 36.4832 97.1273 36.6816 96.7185 36.7242Z" fill="#FF7C00"/></g>
</svg>
